/* XPM */
static char * HDF5_xpm[] = {
"56 56 645 2",
"  	c None",
". 	c #3F5E21",
"+ 	c #3F5E1F",
"@ 	c #3F5F1D",
"# 	c #3F601C",
"$ 	c #3F611B",
"% 	c #3F621A",
"& 	c #3F6318",
"* 	c #3F6317",
"= 	c #3F6416",
"- 	c #3F6514",
"; 	c #3F6612",
"> 	c #3F6711",
", 	c #3F670F",
"' 	c #3F680D",
") 	c #3F690B",
"! 	c #3F6A08",
"~ 	c #3F6B05",
"{ 	c #3F6B04",
"] 	c #3F6C01",
"^ 	c #3E6D00",
"/ 	c #3E6E00",
"( 	c #3E6F00",
"_ 	c #3E7000",
": 	c #3E7100",
"< 	c #3E7200",
"[ 	c #3E7300",
"} 	c #3E7400",
"| 	c #3E7500",
"1 	c #3E7600",
"2 	c #3E7700",
"3 	c #3E7800",
"4 	c #3E7900",
"5 	c #3E7A00",
"6 	c #3E7B00",
"7 	c #3E7C00",
"8 	c #3E7D00",
"9 	c #3E7E00",
"0 	c #438100",
"a 	c #44612A",
"b 	c #B8CFA3",
"c 	c #CAE3B4",
"d 	c #CAE3B3",
"e 	c #CAE4B3",
"f 	c #CAE5B3",
"g 	c #C9E5B3",
"h 	c #C9E4B3",
"i 	c #C9E5B2",
"j 	c #C9E6B2",
"k 	c #C9E6B3",
"l 	c #B4D599",
"m 	c #467C13",
"n 	c #3E5E1F",
"o 	c #D0E7BA",
"p 	c #E5FFCE",
"q 	c #CBEAB1",
"r 	c #40740E",
"s 	c #3E5E1E",
"t 	c #DBFFB5",
"u 	c #D7FFAD",
"v 	c #D9FFB2",
"w 	c #E6FFCF",
"x 	c #CBEBB0",
"y 	c #3E720C",
"z 	c #3E5F1D",
"A 	c #D6FFAC",
"B 	c #D2FFA1",
"C 	c #D5FFA8",
"D 	c #E6FFD0",
"E 	c #3E730B",
"F 	c #3E5F1C",
"G 	c #3E730A",
"H 	c #3E601A",
"I 	c #3E740A",
"J 	c #3E6119",
"K 	c #3E7409",
"L 	c #3E6217",
"M 	c #3E7508",
"N 	c #3E6315",
"O 	c #3E6413",
"P 	c #3E7607",
"Q 	c #3E6512",
"R 	c #3E7706",
"S 	c #3E6610",
"T 	c #D5FF9F",
"U 	c #D8FF9B",
"V 	c #D4FF9F",
"W 	c #D7FF9C",
"X 	c #D4FF9D",
"Y 	c #D4FFA0",
"Z 	c #CBECB0",
"` 	c #3E7705",
" .	c #3E660E",
"..	c #D1FEA0",
"+.	c #6E87E1",
"@.	c #1D25FA",
"#.	c #7E99D8",
"$.	c #D1FDA2",
"%.	c #C5EEAE",
"&.	c #4150F0",
"*.	c #1F29FA",
"=.	c #1F28F9",
"-.	c #90AFD2",
";.	c #D2FFA0",
">.	c #3E7804",
",.	c #3E670C",
"'.	c #AFD1BA",
").	c #0010ED",
"!.	c #0011ED",
"~.	c #0000F1",
"{.	c #C3EBAC",
"].	c #7A96D1",
"^.	c #000DEE",
"/.	c #0000EC",
"(.	c #C7EEAB",
"_.	c #CBECAF",
":.	c #3E680A",
"<.	c #B0D0B9",
"[.	c #001DE1",
"}.	c #001FE1",
"|.	c #0000E3",
"1.	c #B8E2AD",
"2.	c #7490CC",
"3.	c #001EE1",
"4.	c #3048DB",
"5.	c #CBF5A5",
"6.	c #3E7903",
"7.	c #3E6907",
"8.	c #B0D1B3",
"9.	c #002CD4",
"0.	c #002DD4",
"a.	c #0000D6",
"b.	c #B8E4AB",
"c.	c #D5FFA0",
"d.	c #7494C3",
"e.	c #2647D1",
"f.	c #81A3C4",
"g.	c #4D72C9",
"h.	c #0020D4",
"i.	c #3F5ECF",
"j.	c #143BD2",
"k.	c #4866CE",
"l.	c #97B4C2",
"m.	c #96B3C2",
"n.	c #98B4C1",
"o.	c #BDE7AB",
"p.	c #3E7A02",
"q.	c #3E6A05",
"r.	c #D0E8BA",
"s.	c #B0D2AE",
"t.	c #0039C6",
"u.	c #003AC6",
"v.	c #001FC8",
"w.	c #B8E5A8",
"x.	c #7497BA",
"y.	c #3962C1",
"z.	c #CAF7A3",
"A.	c #D4FFA1",
"B.	c #C9F3A3",
"C.	c #86ABB8",
"D.	c #1242C5",
"E.	c #0037C6",
"F.	c #023CC6",
"G.	c #678FBB",
"H.	c #D3FFA1",
"I.	c #3E6B02",
"J.	c #B0D3A9",
"K.	c #0047B8",
"L.	c #0048B8",
"M.	c #0035B9",
"N.	c #B8E6A5",
"O.	c #749CB0",
"P.	c #0047B9",
"Q.	c #396AB6",
"R.	c #C9F7A2",
"S.	c #B0DCA8",
"T.	c #2A5AB7",
"U.	c #0148B8",
"V.	c #6794B2",
"W.	c #3E7B01",
"X.	c #3E6B00",
"Y.	c #B0D5A4",
"Z.	c #0054AB",
"`.	c #0055AB",
" +	c #0046AB",
".+	c #B8E7A3",
"++	c #D5FFA1",
"@+	c #74A1A8",
"#+	c #3973AA",
"$+	c #C9F8A1",
"%+	c #B1DCA4",
"&+	c #004EAB",
"*+	c #679AA8",
"=+	c #3E6C00",
"-+	c #B0D7A0",
";+	c #00619E",
">+	c #00559D",
",+	c #B9E8A0",
"'+	c #D3FDA1",
")+	c #D6FFA1",
"!+	c #75A69F",
"~+	c #397D9E",
"{+	c #75A59F",
"]+	c #68A09F",
"^+	c #D4FEA1",
"/+	c #D2FEA1",
"(+	c #CBEDAF",
"_+	c #B0D99C",
":+	c #006F91",
"<+	c #006E91",
"[+	c #007792",
"}+	c #007892",
"|+	c #007292",
"1+	c #398793",
"2+	c #C9F9A0",
"3+	c #AFDE9D",
"4+	c #006991",
"5+	c #007291",
"6+	c #007992",
"7+	c #5F9F94",
"8+	c #C9F79F",
"9+	c #B0DB98",
"0+	c #007C84",
"a+	c #007D84",
"b+	c #399187",
"c+	c #C0EC9C",
"d+	c #007C83",
"e+	c #9AC893",
"f+	c #3D7D00",
"g+	c #3D6F00",
"h+	c #B0DE94",
"i+	c #008A76",
"j+	c #399C7C",
"k+	c #C9FA9F",
"l+	c #C1EC9A",
"m+	c #008875",
"n+	c #008775",
"o+	c #A2D993",
"p+	c #CBEDAE",
"q+	c #3D7E00",
"r+	c #3D7000",
"s+	c #B0E192",
"t+	c #009868",
"u+	c #009667",
"v+	c #61BA7C",
"w+	c #6FC181",
"x+	c #7CC985",
"y+	c #CDFCA0",
"z+	c #9ADA8C",
"A+	c #34A570",
"B+	c #70C181",
"C+	c #70C281",
"D+	c #9EDA8E",
"E+	c #D1FEA1",
"F+	c #3D7F00",
"G+	c #B0E48F",
"H+	c #00A55A",
"I+	c #00A057",
"J+	c #BAF297",
"K+	c #D4FFA2",
"L+	c #CDFC9F",
"M+	c #4CB568",
"N+	c #00A55B",
"O+	c #69C575",
"P+	c #D5FFA2",
"Q+	c #3D7100",
"R+	c #B0E78C",
"S+	c #00B14E",
"T+	c #00AE49",
"U+	c #B8F395",
"V+	c #D3FFA2",
"W+	c #7DD273",
"X+	c #00B04D",
"Y+	c #00B14F",
"Z+	c #67CC6D",
"`+	c #3D8000",
" @	c #3D7200",
".@	c #B0EB8B",
"+@	c #00BF41",
"@@	c #00BC3A",
"#@	c #B8F593",
"$@	c #C6FA9A",
"%@	c #67D363",
"&@	c #67D566",
"*@	c #D1FFA0",
"=@	c #D1FF9F",
"-@	c #D1FF9E",
";@	c #D0FE9E",
">@	c #D0FE9D",
",@	c #CFFE9D",
"'@	c #CFFF9C",
")@	c #D2FFA4",
"!@	c #CBEEAE",
"~@	c #3D7300",
"{@	c #B0EF89",
"]@	c #00CD33",
"^@	c #00CA2A",
"/@	c #B8F792",
"(@	c #C9FB9A",
"_@	c #C9F899",
":@	c #C1F895",
"<@	c #A1F083",
"[@	c #7DE168",
"}@	c #00CC30",
"|@	c #01CD33",
"1@	c #33D041",
"2@	c #10CF38",
"3@	c #66DD5E",
"4@	c #D0FF9D",
"5@	c #CEFF9B",
"6@	c #CDFE99",
"7@	c #CDFE98",
"8@	c #CCFE97",
"9@	c #CBFE96",
"0@	c #CBFE95",
"a@	c #CAFE94",
"b@	c #CAFE93",
"c@	c #C9FE93",
"d@	c #CDFE9D",
"e@	c #3D8100",
"f@	c #3D7400",
"g@	c #B0F388",
"h@	c #00DA26",
"i@	c #00D918",
"j@	c #B8F990",
"k@	c #B3F68C",
"l@	c #08DC2D",
"m@	c #00D813",
"n@	c #00D816",
"o@	c #00D920",
"p@	c #2FDD36",
"q@	c #BEF890",
"r@	c #29DE36",
"s@	c #00DB26",
"t@	c #64E654",
"u@	c #C9FE91",
"v@	c #C8FD90",
"w@	c #C7FD8F",
"x@	c #C6FD8E",
"y@	c #C6FD8C",
"z@	c #C5FD8B",
"A@	c #C4FD8A",
"B@	c #C4FD89",
"C@	c #C8FD95",
"D@	c #3D8200",
"E@	c #3D7500",
"F@	c #D0E9BA",
"G@	c #B0F787",
"H@	c #00E818",
"I@	c #00E700",
"J@	c #B9FB90",
"K@	c #D4FFA3",
"L@	c #76F15F",
"M@	c #00E817",
"N@	c #00E714",
"O@	c #65ED4F",
"P@	c #BFFB8E",
"Q@	c #D1FF99",
"R@	c #28EA2B",
"S@	c #63EE4C",
"T@	c #C3FD89",
"U@	c #C2FD87",
"V@	c #C1FD86",
"W@	c #C1FC84",
"X@	c #C0FC83",
"Y@	c #BFFC82",
"Z@	c #BFFC81",
"`@	c #BEFC81",
" #	c #BEFC80",
".#	c #C3FC8E",
"+#	c #3D7600",
"@#	c #C3FE96",
"##	c #2CF524",
"$#	c #00F400",
"%#	c #39F52E",
"&#	c #CFFE9F",
"*#	c #A5FB7F",
"=#	c #00F407",
"-#	c #00F401",
";#	c #00F406",
">#	c #2CF422",
",#	c #64F64A",
"'#	c #ABFB7E",
")#	c #CBFE93",
"!#	c #C7FD8D",
"~#	c #79F856",
"{#	c #00F404",
"]#	c #93F964",
"^#	c #BDFC7E",
"/#	c #BCFC7C",
"(#	c #BBFC7B",
"_#	c #BAFC7A",
":#	c #BAFB79",
"<#	c #B9FB78",
"[#	c #B9FB77",
"}#	c #B8FB76",
"|#	c #BFFC87",
"1#	c #E7FFD1",
"2#	c #3D8300",
"3#	c #C4FF96",
"4#	c #B3FF89",
"5#	c #C7FF98",
"6#	c #BAFF8E",
"7#	c #ACFF82",
"8#	c #AAFE7F",
"9#	c #B2FE83",
"0#	c #B2FE82",
"a#	c #BFFE8B",
"b#	c #CCFE93",
"c#	c #C6FD8D",
"d#	c #C1FC85",
"e#	c #A2FC6C",
"f#	c #A4FC6C",
"g#	c #BCFC7B",
"h#	c #BAFC79",
"i#	c #B8FB75",
"j#	c #B6FB73",
"k#	c #B6FB72",
"l#	c #B5FB71",
"m#	c #B4FB6F",
"n#	c #B3FA6E",
"o#	c #B3FA6D",
"p#	c #B2FA6C",
"q#	c #BAFB80",
"r#	c #3D7700",
"s#	c #C9FE92",
"t#	c #C3FD88",
"u#	c #C2FD85",
"v#	c #BCFC7D",
"w#	c #BBFC7A",
"x#	c #B7FB75",
"y#	c #B5FB70",
"z#	c #B1FA6A",
"A#	c #B0FA69",
"B#	c #AFFA67",
"C#	c #AEFA66",
"D#	c #ADFA65",
"E#	c #ADFA64",
"F#	c #ADFA63",
"G#	c #B5FA7A",
"H#	c #3D8400",
"I#	c #3D7800",
"J#	c #D0FF9E",
"K#	c #CEFE9A",
"L#	c #CCFE96",
"M#	c #C5FD8C",
"N#	c #C1FD85",
"O#	c #BAFB78",
"P#	c #B4FB70",
"Q#	c #B2FA6D",
"R#	c #B0FA68",
"S#	c #ACF962",
"T#	c #ABF960",
"U#	c #AAF95E",
"V#	c #A9F95D",
"W#	c #A8F95B",
"X#	c #A8F95A",
"Y#	c #A7F95A",
"Z#	c #A7F859",
"`#	c #B0FA74",
" $	c #3D7900",
".$	c #C8FE91",
"+$	c #C2FD86",
"@$	c #BEFC7F",
"#$	c #B7FB74",
"$$	c #B2FA6B",
"%$	c #AFFA68",
"&$	c #AEFA65",
"*$	c #AAF95F",
"=$	c #A6F959",
"-$	c #A5F957",
";$	c #A4F855",
">$	c #A3F854",
",$	c #A2F852",
"'$	c #A2F851",
")$	c #A1F850",
"!$	c #ACF96E",
"~$	c #3D8600",
"{$	c #CCFE98",
"]$	c #C8FE90",
"^$	c #B3FB6E",
"/$	c #B1FA6B",
"($	c #ACF961",
"_$	c #A9F95E",
":$	c #A6F958",
"<$	c #A3F852",
"[$	c #A1F851",
"}$	c #A0F84E",
"|$	c #9FF84C",
"1$	c #9EF84A",
"2$	c #9DF749",
"3$	c #9CF747",
"4$	c #9CF746",
"5$	c #9BF746",
"6$	c #A8F86A",
"7$	c #CBEEAD",
"8$	c #3D7A00",
"9$	c #AEFA64",
"0$	c #ABF961",
"a$	c #AAF95D",
"b$	c #A5F857",
"c$	c #9EF74B",
"d$	c #9DF748",
"e$	c #99F743",
"f$	c #98F741",
"g$	c #97F740",
"h$	c #97F63E",
"i$	c #96F63D",
"j$	c #95F63C",
"k$	c #A3F765",
"l$	c #E8FFD1",
"m$	c #3D8700",
"n$	c #3D7B00",
"o$	c #C2FD88",
"p$	c #C0FC84",
"q$	c #A4F854",
"r$	c #9FF84D",
"s$	c #98F740",
"t$	c #96F63E",
"u$	c #95F63B",
"v$	c #93F639",
"w$	c #92F637",
"x$	c #91F635",
"y$	c #90F634",
"z$	c #8FF533",
"A$	c #9FF661",
"B$	c #E8FFD2",
"C$	c #CBEFAD",
"D$	c #3D7C00",
"E$	c #B7FB73",
"F$	c #A0F84F",
"G$	c #9EF84B",
"H$	c #98F640",
"I$	c #96F63C",
"J$	c #92F636",
"K$	c #90F533",
"L$	c #8EF530",
"M$	c #8DF52E",
"N$	c #8CF52C",
"O$	c #8AF52A",
"P$	c #8AF529",
"Q$	c #9BF65E",
"R$	c #3D8800",
"S$	c #BDFC7D",
"T$	c #A3F853",
"U$	c #9EF74A",
"V$	c #99F742",
"W$	c #94F63A",
"X$	c #8DF52F",
"Y$	c #8BF52C",
"Z$	c #8AF429",
"`$	c #88F426",
" %	c #86F423",
".%	c #85F422",
"+%	c #84F420",
"@%	c #96F55C",
"#%	c #CEFE9B",
"$%	c #C1FD84",
"%%	c #B4FB6E",
"&%	c #A9F95C",
"*%	c #A1F84F",
"=%	c #8FF532",
"-%	c #8CF52E",
";%	c #83F41F",
">%	c #82F31B",
",%	c #80F319",
"'%	c #7FF317",
")%	c #93F45B",
"!%	c #3D8900",
"~%	c #D8FFB0",
"{%	c #D4FFA7",
"]%	c #D3FFA5",
"^%	c #D0FEA1",
"/%	c #CEFE9D",
"(%	c #CCFE9A",
"_%	c #CAFD96",
":%	c #C8FD92",
"<%	c #C5FD8F",
"[%	c #C3FC8C",
"}%	c #C0FC88",
"|%	c #BEFC85",
"1%	c #BCFC82",
"2%	c #BAFB7E",
"3%	c #B7FB7B",
"4%	c #B5FB78",
"5%	c #B3FA75",
"6%	c #B1FA72",
"7%	c #AFFA6F",
"8%	c #ACF96C",
"9%	c #AAF969",
"0%	c #A8F867",
"a%	c #A6F864",
"b%	c #A4F862",
"c%	c #A2F760",
"d%	c #A0F75E",
"e%	c #9DF65C",
"f%	c #9CF65A",
"g%	c #99F658",
"h%	c #97F557",
"i%	c #96F555",
"j%	c #94F554",
"k%	c #92F453",
"l%	c #90F452",
"m%	c #8FF452",
"n%	c #8DF451",
"o%	c #9DF572",
"p%	c #3D8A00",
"q%	c #D0EABA",
"r%	c #E5FFCF",
"s%	c #E6FFCE",
"t%	c #428200",
"u%	c #BDDCA4",
"v%	c #D0EEB5",
"w%	c #D0EFB5",
"x%	c #D0F0B4",
"y%	c #D0F1B4",
"z%	c #D0F1B3",
"A%	c #D0F2B3",
"B%	c #D0F2B2",
"C%	c #B9E595",
"D%	c #3E8B00",
"E%	c #457C10",
"F%	c #3D7208",
"G%	c #3D7307",
"H%	c #3D7306",
"I%	c #3D7406",
"J%	c #3D7504",
"K%	c #3D7603",
"L%	c #3D7602",
"M%	c #3D7701",
"N%	c #3C7F00",
"O%	c #3C8000",
"P%	c #3C8100",
"Q%	c #3C8200",
"R%	c #3C8300",
"S%	c #3C8400",
"T%	c #3C8500",
"U%	c #3C8600",
"V%	c #3C8700",
"W%	c #3C8800",
"X%	c #3C8900",
"Y%	c #3C8A00",
"Z%	c #3C8B00",
"`%	c #3D8C00",
" &	c #357400",
"                                                                                                                ",
"                                                                                                                ",
"                                                                                                                ",
"                                                                                                                ",
"              . + @ # $ % & * = - ; > , ' ) ! ~ { ] ^ / ( _ : : < [ } | 1 1 2 3 4 4 5 6 7 8 9 9 0               ",
"        a b c c c c c c c d d d e e e e e e e e e f f g g h g g g g g i j j k k k k j j j j j j l m             ",
"        n o p p p p p p p p p p p p p p p p p p p p p p p p p p p p p p p p p p p p p p p p p p q r             ",
"        s o p t u u u u u u u u u u u u u u u u u u u u u u u u u u u u u u u u u u u u u u v w x y             ",
"        z o p A B B B B B B B B B B B B B B B B B B B B B B B B B B B B B B B B B B B B B B C D x E             ",
"        F o p A B B B B B B B B B B B B B B B B B B B B B B B B B B B B B B B B B B B B B B C D x G             ",
"        H o p A B B B B B B B B B B B B B B B B B B B B B B B B B B B B B B B B B B B B B B C D x I             ",
"        J o p A B B B B B B B B B B B B B B B B B B B B B B B B B B B B B B B B B B B B B B C D x K             ",
"        L o p A B B B B B B B B B B B B B B B B B B B B B B B B B B B B B B B B B B B B B B C D x M             ",
"        N o p A B B B B B B B B B B B B B B B B B B B B B B B B B B B B B B B B B B B B B B C D x M             ",
"        O o p A B B B B B B B B B B B B B B B B B B B B B B B B B B B B B B B B B B B B B B C D x P             ",
"        Q o p A B B B B B B B B B B B B B B B B B B B B B B B B B B B B B B B B B B B B B B C D x R             ",
"        S o p A B B T U V B B B B B B B W X X X X X X X X X X X X X X X X X X X X X W Y B B C D Z `             ",
"         .o p A B ..+.@.#.$.B B B B B %.&.*.*.*.*.*.*.*.*.*.*.*.*.*.*.*.*.*.*.*.*.*.=.-.;.B C D Z >.            ",
"        ,.o p A B '.).!.~.{.B B B B Y ].^.!.!.!.!.!.!.!.!.!.!.!.!.!.!.!.!.!.!.!.!.!.!./.(.B C D _.>.            ",
"        :.o p A B <.[.}.|.1.B B B B T 2.3.}.}.}.}.}.}.}.}.}.}.}.}.}.}.}.}.}.}.}.}.}.}.4.5.B C D _.6.            ",
"        7.o p A B 8.9.0.a.b.B B B B c.d.9.0.e.f.g.h.0.0.0.0.i.j.0.0.k.l.m.m.m.m.m.m.n.o.B B C D _.p.            ",
"        q.r.p A B s.t.u.v.w.B B B B c.x.t.u.y.z.A.B.C.D.u.u.E.F.u.u.G.H.B B B B B B B B B B C D _.p.            ",
"        I.r.p A B J.K.L.M.N.B B B B c.O.P.L.Q.R.B B c.S.T.U.L.L.L.L.V.H.B B B B B B B B B B C D _.W.            ",
"        X.r.p A B Y.Z.`. +.+B B B B ++@+Z.`.#+$+B B B H.%+&+`.`.`.`.*+H.B B B B B B B B B B C D _.7             ",
"        =+r.p A B -+;+;+>+,+'+'+'+'+)+!+;+;+~+$+B B B B B {+;+;+;+;+]+^+'+'+'+'+/+B B B B B C D (+7             ",
"        ^ r.p A B _+:+:+<+[+}+}+}+}+}+|+:+:+1+2+B B B B B 3+4+:+:+:+5+}+}+}+}+6+7+8+B B B B C D (+8             ",
"        / r.p A B 9+0+0+0+0+0+0+0+0+0+0+0+a+b+2+B B B B B c+0+0+0+0+0+0+0+0+0+0+d+e+B B B B C D (+f+            ",
"        g+r.p A B h+i+i+i+i+i+i+i+i+i+i+i+i+j+k+B B B B B l+m+i+i+i+i+i+i+i+i+i+n+o+B B B B C D p+q+            ",
"        r+r.p A B s+t+t+u+v+w+w+w+w+w+w+w+w+x+y+B B B B H.z+u+t+t+t+A+B+w+w+w+C+D+E+B B B B C D (+F+            ",
"        r+r.p A B G+H+H+I+J+K+K+K+K+K+K+K+K+K+B B B B B L+M+H+H+H+N+O+P+K+K+K+K+B B B B B B C D p+F+            ",
"        Q+r.p A B R+S+S+T+U+B B B B B B B B B B B B B V+W+X+S+S+S+Y+Z+H.B B B B B B B B B B C D p+`+            ",
"         @r.p A B .@+@+@@@#@B B B B B B B B B B B B $@%@+@+@+@+@+@+@&@H.B B *@*@=@-@;@>@,@'@)@D !@`+            ",
"        ~@r.p A B {@]@]@^@/@B B B B B V+(@_@_@:@<@[@}@]@]@|@1@2@]@]@3@4@5@6@7@8@9@0@a@a@b@c@d@D !@e@            ",
"        f@r.p A B g@h@h@i@j@B B B B B k@l@m@m@n@o@h@h@h@h@p@q@r@h@s@t@b@u@v@w@x@y@z@z@A@A@B@C@D !@D@            ",
"        E@F@p A B G@H@H@I@J@B B B B K@L@M@H@H@H@H@H@H@N@O@P@Q@R@H@H@S@z@T@U@V@W@X@Y@Z@`@ # #.#D !@D@            ",
"        +#F@p A B @###$#%#&#B B B B H.*#=#-#-#$#;#>#,#'#)#w@!#~#{#;#]#Z@ #^#/#(#_#:#<#[#}#}#|#1#!@2#            ",
"        +#F@p A B B 3#4#5#B B B B B B K+6#7#8#9#0#a#b#c#A@U@d#`@e#f#g#h#[#i#j#k#l#m#n#o#o#p#q#1#!@2#            ",
"        r#F@p A B B B B B B B B B B B *@'@6@9@s#w@z@t#u#Y@ #v#w#[#x#k#y#n#p#z#A#B#C#D#E#F#F#G#1#!@H#            ",
"        I#F@p A B B B B B B B B B B J#K#L#b@w@M#t#N#Y@^#(#O#x#k#P#Q#z#R#C#F#S#T#U#V#W#X#Y#Z#`#1#!@H#            ",
"         $F@p A B B B B B B B B *@'@6@0@.$c#B@+$Y@@$(#<##$l#n#$$%$&$S#*$V#W#=$-$;$>$,$'$)$)$!$1#!@~$            ",
"         $F@p A B B B B B B B *@'@{$a@]$M#t#W@ #v#h#i#k#^$/$B#E#($_$W#:$;$<$[$}$|$1$2$3$4$5$6$1#7$~$            ",
"        8$F@p A B B B B B B *@'@{$a@v@z@U@X@@$(#[##$P#p#R#9$0$a$Y#b$>$)$}$c$d$5$e$f$g$h$i$j$k$l$7$m$            ",
"        n$F@p A B B B B B ;.4@7@a@]$M#o$p$@$(#[#j#m#/$B#F#*$W#:$q$[$r$2$5$e$s$t$u$v$w$x$y$z$A$B$C$m$            ",
"        D$F@p A B B B B B -@K#9@.$c#T@W@ #/#<#E$m#/$B#F#*$Y#-$<$F$G$3$e$H$I$v$J$K$L$M$N$O$P$Q$B$C$R$            ",
"        f+F@p A B B B B ;.'@{$b@w@A@+$Y@S$h##$y#p#R#F#*$W#-$T$}$U$5$V$t$W$J$K$X$Y$Z$`$ %.%+%@%B$C$R$            ",
"        q+F@p A B B B B =@#%L#u@x@T@$% #(#[#j#%%z#&$0$&%:$>$*%G$3$V$t$W$J$=%-%O$`$.%;%>%,%'%)%B$C$!%            ",
"        F+F@p ~%{%{%{%{%]%^%/%(%_%:%<%[%}%|%1%2%3%4%5%6%7%8%9%0%a%b%c%d%e%f%g%h%i%j%k%l%m%n%o%l$C$p%            ",
"        F+q%p p p p p p r%p p r%r%r%w r%r%w w s%s%w s%s%s%s%s%s%s%s%s%s%s%s%s%s%s%s%s%s%s%s%p p C$p%            ",
"        t%u%v%v%w%w%w%w%w%w%w%w%w%w%w%x%x%x%x%x%x%x%x%y%y%y%y%z%z%z%z%z%z%z%A%A%A%A%A%B%B%B%B%B%C%D%            ",
"          E%I F%G%H%I%J%J%K%L%M%I#I# $8$8$n$n$D$f+q+q+N%N%O%P%P%Q%R%R%S%T%T%U%U%V%V%W%X%X%Y%Z%Z%`% &            ",
"                                                                                                                ",
"                                                                                                                ",
"                                                                                                                ",
"                                                                                                                ",
"                                                                                                                ",
"                                                                                                                "};
