/* XPM */
static char * ptycho_xpm[] = {
"56 56 636 2",
"  	c None",
". 	c #8C4AFF",
"+ 	c #8E4BFF",
"@ 	c #6F3DE8",
"# 	c #6138DD",
"$ 	c #3426BC",
"% 	c #3727BD",
"& 	c #8F4BFF",
"* 	c #703EE9",
"= 	c #5734D6",
"- 	c #5B36D9",
"; 	c #5532D2",
"> 	c #3225BA",
", 	c #8B49FE",
"' 	c #6C3CE3",
") 	c #673AE1",
"! 	c #3F2AC3",
"~ 	c #3627BC",
"{ 	c #8045F5",
"] 	c #6137DA",
"^ 	c #3025B9",
"/ 	c #8D4AFF",
"( 	c #7F44F4",
"_ 	c #6238DE",
": 	c #4B2ECA",
"< 	c #3526BC",
"[ 	c #7E44F3",
"} 	c #5533D4",
"| 	c #3928BF",
"1 	c #743FEA",
"2 	c #673AE2",
"3 	c #442CC5",
"4 	c #6F3DE4",
"5 	c #7740EC",
"6 	c #4F30CC",
"7 	c #904CFF",
"8 	c #7540EC",
"9 	c #6038DD",
"0 	c #3928BE",
"a 	c #8D4BFF",
"b 	c #7B43F0",
"c 	c #7E44F5",
"d 	c #3A28BF",
"e 	c #7741EE",
"f 	c #5131D0",
"g 	c #6A3CE4",
"h 	c #6239DE",
"i 	c #8948FD",
"j 	c #693BE3",
"k 	c #6239DF",
"l 	c #5E37D9",
"m 	c #713EEA",
"n 	c #5332D1",
"o 	c #743FED",
"p 	c #6A3BE1",
"q 	c #7F44F5",
"r 	c #3827BE",
"s 	c #7740EB",
"t 	c #7A43F1",
"u 	c #7741EF",
"v 	c #3326BB",
"w 	c #8C49FF",
"x 	c #8E32FF",
"y 	c #8E2BFF",
"z 	c #8C4BFF",
"A 	c #5D36D9",
"B 	c #3426BB",
"C 	c #8D42FF",
"D 	c #8D37FF",
"E 	c #8D38FF",
"F 	c #8D39FF",
"G 	c #8D3CFF",
"H 	c #8D43FF",
"I 	c #8D47FF",
"J 	c #8C48FF",
"K 	c #8B52FC",
"L 	c #67CC7C",
"M 	c #6BDC9B",
"N 	c #8B34FB",
"O 	c #6A3CE3",
"P 	c #643ADF",
"Q 	c #8953F6",
"R 	c #6DC097",
"S 	c #54FF1E",
"T 	c #58FF3E",
"U 	c #58FE3F",
"V 	c #5CEA53",
"W 	c #6DB999",
"X 	c #865EEC",
"Y 	c #8D46FF",
"Z 	c #7792B6",
"` 	c #7F76D5",
" .	c #8D44FF",
"..	c #66CC77",
"+.	c #69E094",
"@.	c #8B33FB",
"#.	c #6E3DE7",
"$.	c #5C36DA",
"%.	c #8953F7",
"&.	c #6EC09A",
"*.	c #5EEE58",
"=.	c #73A6A8",
"-.	c #7795B7",
";.	c #7796B6",
">.	c #75A2AF",
",.	c #6BC796",
"'.	c #5AFE52",
").	c #63DF73",
"!.	c #8668EA",
"~.	c #8D45FF",
"{.	c #8D33FF",
"].	c #5CEE4E",
"^.	c #7699B4",
"/.	c #8E30FF",
"(.	c #8C46FF",
"_.	c #8D41FF",
":.	c #8C45FF",
"<.	c #67E289",
"[.	c #8942F4",
"}.	c #8D40FF",
"|.	c #763DEE",
"1.	c #481ECB",
"2.	c #360ABE",
"3.	c #3613BE",
"4.	c #3720BE",
"5.	c #6DC199",
"6.	c #63DF6F",
"7.	c #8761ED",
"8.	c #8E37FF",
"9.	c #8E3BFF",
"0.	c #8E38FF",
"a.	c #8E28FF",
"b.	c #7A9AC9",
"c.	c #52FF00",
"d.	c #7CA6D0",
"e.	c #8661EC",
"f.	c #7AA7CE",
"g.	c #58FF42",
"h.	c #6DC49B",
"i.	c #8196E0",
"j.	c #837CE2",
"k.	c #7EA3D7",
"l.	c #8962F6",
"m.	c #8C43FF",
"n.	c #8582EC",
"o.	c #7E9CD7",
"p.	c #8A5AFA",
"q.	c #8B43FB",
"r.	c #8283E0",
"s.	c #7DA5D8",
"t.	c #7E9DDA",
"u.	c #8375E4",
"v.	c #8B48FD",
"w.	c #66CD77",
"x.	c #69DF93",
"y.	c #8843F0",
"z.	c #818DE0",
"A.	c #7DA8D7",
"B.	c #8096DC",
"C.	c #875CEE",
"D.	c #8236F6",
"E.	c #846CE9",
"F.	c #4694A6",
"G.	c #44A2A1",
"H.	c #4290A4",
"I.	c #3D5AAE",
"J.	c #3706BC",
"K.	c #3726BE",
"L.	c #62E06D",
"M.	c #856AE8",
"N.	c #8C47FF",
"O.	c #8378E4",
"P.	c #5CEC4C",
"Q.	c #74B4B5",
"R.	c #7D78CC",
"S.	c #65DA79",
"T.	c #59FE4A",
"U.	c #61E66A",
"V.	c #6EBF9D",
"W.	c #759BAE",
"X.	c #58F935",
"Y.	c #76A3BA",
"Z.	c #8B4CFD",
"`.	c #894AF6",
" +	c #6AD497",
".+	c #5FE254",
"++	c #8766F1",
"@+	c #8B40FC",
"#+	c #72BBAF",
"$+	c #5BEC43",
"%+	c #60DE60",
"&+	c #5FDC5D",
"*+	c #60E062",
"=+	c #789DBF",
"-+	c #8B52FB",
";+	c #66CC78",
">+	c #64E680",
",+	c #72A9A8",
"'+	c #65CF72",
")+	c #63DB6E",
"!+	c #59F131",
"~+	c #69D08B",
"{+	c #8757ED",
"]+	c #8E3CFF",
"^+	c #6A96BF",
"/+	c #57DD5F",
"(+	c #53D756",
"_+	c #4FCF6D",
":+	c #53DA53",
"<+	c #53DE5C",
"[+	c #438C9C",
"}+	c #3707BB",
"|+	c #8382E5",
"1+	c #57F826",
"2+	c #77B0C0",
"3+	c #8A47FA",
"4+	c #7F70D1",
"5+	c #59FE46",
"6+	c #749DAE",
"7+	c #8A45F8",
"8+	c #8A3FF6",
"9+	c #69DC93",
"0+	c #60DF5E",
"a+	c #8B52FE",
"b+	c #8379E4",
"c+	c #5CEA4D",
"d+	c #76AFBF",
"e+	c #8C3EFF",
"f+	c #7894BC",
"g+	c #58FD3F",
"h+	c #78A6C1",
"i+	c #8667EA",
"j+	c #856BEA",
"k+	c #6BCD97",
"l+	c #56F91B",
"m+	c #8370E2",
"n+	c #8B51FC",
"o+	c #66CB7A",
"p+	c #5AF843",
"q+	c #72B7AA",
"r+	c #8474E6",
"s+	c #875DED",
"t+	c #799EC0",
"u+	c #57FF3D",
"v+	c #73A7AD",
"w+	c #902FFF",
"x+	c #7A65DD",
"y+	c #5CE865",
"z+	c #4DC473",
"A+	c #3F64AB",
"B+	c #392FB4",
"C+	c #3F6BA8",
"D+	c #4FCF7A",
"E+	c #55E955",
"F+	c #3D65AD",
"G+	c #371DBE",
"H+	c #6DC299",
"I+	c #63DE6F",
"J+	c #8753EE",
"K+	c #8F05FF",
"L+	c #8F14FF",
"M+	c #8D27FF",
"N+	c #8267DD",
"O+	c #68D486",
"P+	c #58F62E",
"Q+	c #7F8DDA",
"R+	c #8365DD",
"S+	c #58FE45",
"T+	c #7796B7",
"U+	c #8E39FF",
"V+	c #8E36FF",
"W+	c #77A2BB",
"X+	c #58FA3A",
"Y+	c #8271DD",
"Z+	c #8C42FF",
"`+	c #7CA4D1",
" @	c #59F12F",
".@	c #8186DF",
"+@	c #8F12FF",
"@@	c #60E66C",
"#@	c #60EA69",
"$@	c #8D22FF",
"%@	c #846BE6",
"&@	c #7998C3",
"*@	c #8661EA",
"=@	c #65CF74",
"-@	c #64E77D",
";@	c #865DEB",
">@	c #8C39FE",
",@	c #57FF39",
"'@	c #6BC895",
")@	c #8E00FF",
"!@	c #6FAFBF",
"~@	c #5AFA2E",
"{@	c #4074AC",
"]@	c #3724BE",
"^@	c #3604BF",
"/@	c #4184A4",
"(@	c #58F73B",
"_@	c #459D9E",
":@	c #3611BD",
"<@	c #6EBD9B",
"[@	c #57FF3B",
"}@	c #5BFC56",
"|@	c #5BFC59",
"1@	c #5BFC57",
"2@	c #5AFE4E",
"3@	c #5AF445",
"4@	c #78A0C2",
"5@	c #8C44FF",
"6@	c #8266DC",
"7@	c #7697B6",
"8@	c #874CEC",
"9@	c #5FF36C",
"0@	c #6ABE89",
"a@	c #8955F6",
"b@	c #6BC691",
"c@	c #6BD298",
"d@	c #8850F0",
"e@	c #8A32F9",
"f@	c #5BFA59",
"g@	c #68CD82",
"h@	c #8C4AFE",
"i@	c #8C4BFE",
"j@	c #8B53FB",
"k@	c #65D072",
"l@	c #8943F3",
"m@	c #8D3AFF",
"n@	c #59F646",
"o@	c #6BCB95",
"p@	c #8F00FF",
"q@	c #74C7B6",
"r@	c #51E641",
"s@	c #3C5BB3",
"t@	c #3726BD",
"u@	c #371EBE",
"v@	c #3E64AB",
"w@	c #55E651",
"x@	c #49AB8C",
"y@	c #3720BA",
"z@	c #5DEF56",
"A@	c #70AD9F",
"B@	c #749DAC",
"C@	c #749EAB",
"D@	c #749EAC",
"E@	c #7A87C1",
"F@	c #8F27FF",
"G@	c #6CC798",
"H@	c #59F744",
"I@	c #8B45F9",
"J@	c #8771EF",
"K@	c #5DE447",
"L@	c #78B0C6",
"M@	c #8E33FF",
"N@	c #8844F0",
"O@	c #5BFB57",
"P@	c #68C786",
"Q@	c #68E18F",
"R@	c #8A3AF8",
"S@	c #56F83F",
"T@	c #6AD292",
"U@	c #8100F7",
"V@	c #53C68D",
"W@	c #53DF4F",
"X@	c #3C56B4",
"Y@	c #371FBE",
"Z@	c #3D5CAC",
"`@	c #54E157",
" #	c #4AB084",
".#	c #3827B9",
"+#	c #8663EB",
"@#	c #8E3AFF",
"##	c #8E3EFF",
"$#	c #7F70D3",
"%#	c #5AFD4D",
"&#	c #778EB9",
"*#	c #7F8FD9",
"=#	c #5DF059",
"-#	c #826EDF",
";#	c #8B2FFC",
">#	c #67D17F",
",#	c #8E2CFF",
"'#	c #8B4CFC",
")#	c #8956F6",
"!#	c #8A51F9",
"~#	c #6ACA93",
"{#	c #8900FF",
"]#	c #71C5B2",
"^#	c #52E83F",
"/#	c #3C5DB4",
"(#	c #3825BE",
"_#	c #361DBE",
":#	c #3E67AB",
"<#	c #56E84E",
"[#	c #49AA8E",
"}#	c #371FBB",
"|#	c #62E06E",
"1#	c #846CE4",
"2#	c #8267DB",
"3#	c #8F33FF",
"4#	c #8D2AFF",
"5#	c #62E66D",
"6#	c #64D774",
"7#	c #6CBE92",
"8#	c #6BD69B",
"9#	c #8C2DFE",
"0#	c #8F26FF",
"a#	c #62E070",
"b#	c #5DF25F",
"c#	c #8A35F9",
"d#	c #8270DE",
"e#	c #6CC293",
"f#	c #8076D4",
"g#	c #8B51FD",
"h#	c #61CA8A",
"i#	c #6600E9",
"j#	c #51A0A5",
"k#	c #57F737",
"l#	c #3F73A9",
"m#	c #370EC0",
"n#	c #3620BE",
"o#	c #3600BF",
"p#	c #438AA0",
"q#	c #58F63A",
"r#	c #4496A0",
"s#	c #3612BE",
"t#	c #8569E9",
"u#	c #865AE8",
"v#	c #56FF31",
"w#	c #6CC296",
"x#	c #8463E4",
"y#	c #8859F4",
"z#	c #8E3FFF",
"A#	c #7894BA",
"B#	c #58FF40",
"C#	c #5FE960",
"D#	c #7A95C4",
"E#	c #7C8AC9",
"F#	c #57FD33",
"G#	c #6EC39E",
"H#	c #8275DC",
"I#	c #817ADB",
"J#	c #69D390",
"K#	c #5AF03A",
"L#	c #8669EA",
"M#	c #56F840",
"N#	c #60CA88",
"O#	c #5E00DF",
"P#	c #3548AA",
"Q#	c #53E161",
"R#	c #50D46D",
"S#	c #4277A0",
"T#	c #3C3CAD",
"U#	c #4173A1",
"V#	c #52DD69",
"W#	c #52DB65",
"X#	c #3B4FB1",
"Y#	c #3721BE",
"Z#	c #8954F6",
"`#	c #6AC78D",
" $	c #5EE755",
".$	c #846CE6",
"+$	c #8C45FE",
"@$	c #67CD7F",
"#$	c #55FB1C",
"$$	c #64D370",
"%$	c #807BD8",
"&$	c #8B44FA",
"*$	c #5BF34D",
"=$	c #61F073",
"-$	c #8840F4",
";$	c #8D48FF",
">$	c #8C43FD",
",$	c #77A6BE",
"'$	c #5FE056",
")$	c #5DE84E",
"!$	c #5EE74E",
"~$	c #64D56E",
"{$	c #7D8DD0",
"]$	c #62D262",
"^$	c #64E782",
"/$	c #8A39F7",
"($	c #903AFF",
"_$	c #56FF0C",
":$	c #57CF73",
"<$	c #3300C3",
"[$	c #3600BE",
"}$	c #3F77A7",
"|$	c #50C869",
"1$	c #54E14F",
"2$	c #53E55B",
"3$	c #53DC55",
"4$	c #4FC46E",
"5$	c #3F70A8",
"6$	c #3711BD",
"7$	c #8C4CFE",
"8$	c #876BF2",
"9$	c #8676EF",
"0$	c #8B50FB",
"a$	c #885DF3",
"b$	c #8580EC",
"c$	c #8679EE",
"d$	c #8A56F9",
"e$	c #57F945",
"f$	c #6FB6A0",
"g$	c #8E31FF",
"h$	c #8B49FC",
"i$	c #876CF0",
"j$	c #8581EC",
"k$	c #857FED",
"l$	c #8865F2",
"m$	c #8C49FE",
"n$	c #876FEF",
"o$	c #8776F1",
"p$	c #8C48FE",
"q$	c #6D3AE6",
"r$	c #5C78CB",
"s$	c #3A5EB2",
"t$	c #371CBE",
"u$	c #3718BD",
"v$	c #3A45B5",
"w$	c #3D6FB1",
"x$	c #3E79B0",
"y$	c #3D6DB1",
"z$	c #3A43B6",
"A$	c #371DBD",
"B$	c #8F28FF",
"C$	c #6DB996",
"D$	c #58FB53",
"E$	c #6D3DE5",
"F$	c #643AE0",
"G$	c #3725BD",
"H$	c #3724BD",
"I$	c #8953F4",
"J$	c #7A89C3",
"K$	c #67CB7C",
"L$	c #59FD4A",
"M$	c #8E3DFF",
"N$	c #6C3CE5",
"O$	c #3927BE",
"P$	c #8658EB",
"Q$	c #6CD29A",
"R$	c #7797B6",
"S$	c #8A49FD",
"T$	c #8647F9",
"U$	c #7C43F2",
"V$	c #5935D8",
"W$	c #3B28C0",
"X$	c #8E27FF",
"Y$	c #8F13FF",
"Z$	c #703DE8",
"`$	c #5F37D9",
" %	c #6339DE",
".%	c #7D43F2",
"+%	c #6F3DE3",
"@%	c #914CFF",
"#%	c #6A3BDF",
"$%	c #8045F6",
"%%	c #6339DF",
"&%	c #5C35D5",
"*%	c #2F25BA",
"=%	c #6037DD",
"-%	c #7540EB",
";%	c #693BE1",
">%	c #924DFF",
",%	c #6C3BE1",
"'%	c #723FE9",
")%	c #4B2EC9",
"!%	c #3F29C2",
"~%	c #5030CE",
"{%	c #6A3CE5",
"]%	c #8547F8",
"^%	c #7C43F0",
"/%	c #5D36D8",
"(%	c #7D43F3",
"_%	c #4D2FCB",
":%	c #3D29C2",
"<%	c #4C2FCD",
"[%	c #7842F0",
"}%	c #7641EE",
"|%	c #4F31D0",
"1%	c #5131D2",
"2%	c #7B43F2",
"3%	c #713FEA",
"4%	c #472DC8",
"5%	c #3627BD",
"6%	c #4B2FCC",
"7%	c #6C3DE6",
"8%	c #8949FC",
"9%	c #6B3CE5",
"0%	c #5333D2",
"a%	c #6D3CE3",
"b%	c #8A49FE",
"c%	c #8B4AFE",
"d%	c #6238DA",
"e%	c #5A36D8",
"f%	c #673BE2",
"g%	c #402BC5",
"h%	c #3125BA",
"i%	c #2D24B9",
"j%	c #4B2FCE",
"k%	c #7A43F0",
"l%	c #663BE1",
"m%	c #5E38DC",
"n%	c #5A35D9",
"o%	c #5734D7",
"p%	c #4E30D0",
"q%	c #472EC9",
"r%	c #723EE7",
"s%	c #6639DD",
"t%	c #4F31D1",
"u%	c #5534D4",
"v%	c #5D37DB",
"w%	c #6B3DE4",
"x%	c #7A42F0",
"y%	c #6339DD",
"z%	c #482ECB",
"A%	c #2B23B8",
"B%	c #3325BB",
"C%	c #432CC6",
"D%	c #5533D3",
"E%	c #5734D4",
"F%	c #6037DB",
"G%	c #673AE0",
"H%	c #723FE8",
"I%	c #6A3BE2",
"J%	c #6639E0",
"K%	c #6338DD",
"L%	c #5433D2",
"M%	c #3E2AC2",
"N%	c #2C24B8",
"O%	c #3526BB",
"P%	c #3626BD",
"Q%	c #3225BB",
"R%	c #2E24B9",
"S%	c #3025BA",
". . . . . . . . . . . . . . . . . . . . . . . . . . . . . . . . . . . . . . . . + @ # $ % % % % % % % % % % % % ",
". . . . . . . . . . . . . . . . . . . . . . . . . . . . . . . . . . . . . . . . . & * = $ % % % % % % % % % % % ",
". . . . . . . . . . . . . . . . . . . . . . . . . . . . . . . . . . . . . . . . . . . - ; > % % % % % % % % % % ",
". . . . . . . . . . . . . . . . . . . . . . . . . . . . . . . . . . . . . . . . . . , ' ) ! ~ % % % % % % % % % ",
". . . . . . . . . . . . . . . . . . . . . . . . . . . . . . . . . . . . . . . . . . . . { ] ^ % % % % % % % % % ",
". . . . . . . . . . . . . . . . . . . . . . . . . . . . . . . . . . . . . . . . . . . / ( _ : < % % % % % % % % ",
". . . . . . . . . . . . . . . . . . . . . . . . . . . . . . . . . . . . . . . . . . . . . [ } | % % % % % % % % ",
". . . . . . . . . . . . . . . . . . . . . . . . . . . . . . . . . . . . . . . . . . . . + 1 2 3 % % % % % % % % ",
". . . . . . . . . . . . . . . . . . . . . . . . . . . . . . . . . . . . . . . . . . . . + 4 5 6 % % % % % % % % ",
". . . . . . . . . . . . . . . . . . . . . . . . . . . . . . . . . . . . . . . . . . . . . 7 8 9 0 % % % % % % % ",
". . . . . . . . . . . . . . . . . . . . . . . . . . . . . . . . . . . . . . . . . . . . . a b c d % % % % % % % ",
". . . . . . . . . . . . . . . . . . . . . . . . . . . . . . . . . . . . . . . . . . . . . . & e f ~ % % % % % % ",
". . . . . . . . . . . . . . . . . . . . . . . . . . . . . . . . . . . . . . . . . . . . . . & g h < % % % % % % ",
". . . . . . . . . . . . . . . . . . . . . . . . . . . . . . . . . . . . . . . . . . . . . . i j k < % % % % % % ",
". . . . . . . . . . . . . . . . . . . . . . . . . . . . . . . . . . . . . . . . . . . . . . & l m % d % % % % % ",
". . . . . . . . . . . . . . . . . . . . . . . . . . . . . . . . . . . . . . . . . . . . . . 7 n o < | % % % % % ",
". . . . . . . . . . . . . . . . . . . . . . . . . . . . . . . . . . . . . . . . . . . . . . + p q $ r % % % % % ",
". . . . . . . . . . . . . . . . . . . . . . . . . . . . . . . . . . . . . . . . . . . . . . + s t $ % % % % % % ",
". . . . . . . . . . . . . . . . . . . . . . . . . . . . . . . . . . . . . . . . . . . . . . 7 f u v % % % % % % ",
". . . . . . . . . . . . . . . . . . . . . . . . . . . . . . . . . . . w x y z . . . . . . . & A * B % % % % % % ",
". . C D E E E F G H . . . . I J . . . . . . . . . . . . . . . . . . . K L M N w . . . . . . & O P < % % % % % % ",
". Q R S T U U U V W X J . Y Z `  .. . . . . . . . . . . . . . . . . . K ..+.@.w . . . . . . + #.$.< % % % % % % ",
". %.&.*.=.-.;.>.,.'.).!.~.{.].^./.(._.J . . . . :.C w . w ~._.C (.. . K ..<.[.C }.C J . . . + |.1.2.3.4.% % % % ",
". %.5.6.7.8.9.0.a.b.c.d.e.f.g.h.i.j.k.l.. . . m.n.o.p.w q.r.s.t.u.v.. K w.x.y.z.A.B.C. .. a D.E.F.G.H.I.J.K.% % ",
". %.5.L.M.N.. . ~.O.P.Q.R.S.T.U.V.W.X.Y.Z.. w `. +.+++@+#+$+%+&+*+=+z -+;+>+,+'+)+!+~+{+I ]+^+/+(+_+:+<+[+}+% % ",
". %.5.L.M.N.. w ]+|+1+2+3+4+5+6+7+8+9+0+a+. ~.b+c+d+e+f+g+h+i+j+k+l+m+n+o+p+q+r+s+t+u+v+w+x+y+z+A+B+C+D+E+F+G+% ",
". %.H+I+J+K+L+M+N+O+P+Q+}.R+S+T+U+V+W+X+Y+w Z+`+ @.@+@@@#@$@Y _.%@&@*@K =@-@;@C N.>@,@'@)@!@~@{@G+]@^@/@(@_@:@% ",
". %.<@[@}@|@|@1@2@3@4@5@Y 6@S+7@9.I 8@9@0@C a@b@c@d@e@f@g@/.. . h@i@i@j@k@<.l@J . m@n@o@p@q@r@s@t@% u@v@w@x@y@% ",
". %.&.z@A@B@C@D@E@J+H . I 6@S+7@9.. F@G@H@I@J@K@L@M@N@O@P@M@. . . . . K ..Q@R@w . m@S@T@U@V@W@X@t@% Y@Z@`@ #.#% ",
". %.5.6.+#@#####C J . . I 6@S+;.9.. H $#%#&#*#=#-#H ;#f@>#,#. . '#)#!#K w.Q@R@w . m@n@~#{#]#^#/#(#% _#:#<#[#}#% ",
". %.5.|#1#J . . . . . . Y 2#S+-.3#J . 4#5#6#7#8#9#. 0#a#b#c#}.U+d#e#f#g#w.Q@R@w . m@S@h#i#j#k#l#m#n#o#p#q#r#s#% ",
". %.5.L.t#N.. . . . . . J u#v#w#x#y#w z#A#B#C#D#@#. C E#F#G#H#I#J#K#L#K w.Q@R@w . m@M#N#O#P#Q#R#S#T#U#V#W#X#Y#% ",
". Z#`# $.$N.. . . . . . . +$@$#$$$%$H . &$*$=$-$;$. . >$,$'$)$!$~${$z j@]$^$/$w . ($_$:$<$[$}$|$1$2$3$4$5$6$% % ",
". 7$8$9$0$. . . . . . . . w a$b$c$d$w . R@e$f$g$. . . . h$i$j$k$l$m$. i@n$o$p$. 7 q$r$s$t$% u$v$w$x$y$z$A$% % % ",
". . w w . . . . . . . . . . . w w . N.B$C$D$8@I . . . . . w w w w . . . w w . & E$F$(#(#% % % t@G$H$G$t@% % % % ",
". . . . . . . . . . . . . . . . w I$J$K$L$B@M$. . . . . . . . . . . . . . . + N$# O$% % % % % % % % % % % % % % ",
". . . . . . . . . . . . . . . . I P$Q$>+R$0.z . . . . . . . . . . . . . S$T$U$V$W$r % % % % % % % % % % % % % % ",
"a + . . . . . . . . . . . . . . . w X$Y$9.. . . . . . . . . . . . . + . Z$`$ %W$~ % % % % % % % % % % % % % % % ",
".%+%@%+ . . . . . . . . . . . . . . . . . . . . . . . . . . . . + 7 #%$%%%&%*%~ % % % % % % % % % % % % % % % % ",
"=%-%;%s @%/ . . . . . . . . . . . . . . . . . . . . . . . . a >%,%E$'%=%)%^ % % % % % % % % % % % % % % % % % % ",
"!%~%{%t ; ]%& . . . . . . . . . . . . . . . . . . . . . . 7 ^%/%(%g _%:%< % % % % % % % % % % % % % % % % % % % ",
"r r d <%[%}%|%a / a / . . . . . . . . . . . . . . / a / S$1%2%3%4%d % % % % % % % % % % % % % % % % % % % % % % ",
"r r % 5%^ 6%7%8%9%0%a%a , b%S$S$S$c%, S$S$S$b%b%+ d%e%3%8%f%g%> % % % % % % % % % % % % % % % % % % % % % % % % ",
"r r % % % < h%i%j%) k%l%m%n%o%p%q%r%s%6%t%u%- v%w%x%y%z%A%B%% % % % % % % % % % % % % % % % % % % % % % % % % % ",
"% % % % % % % r < ^ i%C%D%E%F%G%H%I%E$-%J%K%E%L%M%N%h%O%r r % % % % % % % % % % % % % % % % % % % % % % % % % % ",
"% % % % % % % r % % % P%B B Q%h%R%S%S%R%h%Q%$ B 5%% % % r % % % % % % % % % % % % % % % % % % % % % % % % % % % ",
"% % % % % % % % % % r % % % % % % % % % % % r % % % % % % % % % % % % % % % % % % % % % % % % % % % % % % % % % ",
"% % % % % % % % % % % % % % % % % % % % % % % % % % % % % % % % % % % % % % % % % % % % % % % % % % % % % % % % ",
"% % % % % % % % % % % % % % % % % % % % % % % % % % % % % % % % % % % % % % % % % % % % % % % % % % % % % % % % ",
"% % % % % % % % % % % % % % % % % % % % % % % % % % % % % % % % % % % % % % % % % % % % % % % % % % % % % % % % ",
"% % % % % % % % % % % % % % % % % % % % % % % % % % % % % % % % % % % % % % % % % % % % % % % % % % % % % % % % ",
"% % % % % % % % % % % % % % % % % % % % % % % % % % % % % % % % % % % % % % % % % % % % % % % % % % % % % % % % ",
"% % % % % % % % % % % % r % % % % % % % % % % % % % % % % % % % % % % % % % % % % % % % % % % % % % % % % % % % ",
"% % % % % % % % % % % % % % % % % % % % % % % % % % % % % % % % % % % % % % % % % % % % % % % % % % % % % % % % ",
"% % % % % % % % % % % % % % % % % % % % % % % % % % % % % % % % % % % % % % % % % % % % % % % % % % % % % % % % ",
"% % % % % % % % % % % % % % % % % % % % % % % % % % % % % % % r % % % % % % % % % % % % % % % % % % % % % % % % "};
